<?xml version="1.0" encoding="UTF-8" standalone="no"?>
<!DOCTYPE svg PUBLIC "-//W3C//DTD SVG 1.1//EN"
 "http://www.w3.org/Graphics/SVG/1.1/DTD/svg11.dtd">
<!-- Generated by graphviz version 2.40.1 (20161225.0304)
 -->
<!-- Title: dependencies Pages: 1 -->
<svg width="4463pt" height="284pt"
 viewBox="0.00 0.00 4463.00 284.00" xmlns="http://www.w3.org/2000/svg" xmlns:xlink="http://www.w3.org/1999/xlink">
<g id="graph0" class="graph" transform="scale(1 1) rotate(0) translate(4 280)">
<title>dependencies</title>
<polygon fill="#ffffff" stroke="transparent" points="-4,4 -4,-280 4459,-280 4459,4 -4,4"/>
<text text-anchor="start" x="2206.5091" y="-42.4" font-family="sans-serif" font-weight="bold" font-size="14.00" fill="#000000">Legend</text>
<polygon fill="#ffffb3" stroke="transparent" points="1993.5,-10 1993.5,-30 2013.5,-30 2013.5,-10 1993.5,-10"/>
<text text-anchor="start" x="2017.129" y="-15.4" font-family="sans-serif" font-size="14.00" fill="#000000"> &#160;Declarations</text>
<polygon fill="#8dd3c7" stroke="transparent" points="2106.5,-10 2106.5,-30 2126.5,-30 2126.5,-10 2106.5,-10"/>
<text text-anchor="start" x="2130.2251" y="-15.4" font-family="sans-serif" font-size="14.00" fill="#000000"> &#160;Module</text>
<polygon fill="#80b1d3" stroke="transparent" points="2192.5,-10 2192.5,-30 2212.5,-30 2212.5,-10 2192.5,-10"/>
<text text-anchor="start" x="2216.2812" y="-15.4" font-family="sans-serif" font-size="14.00" fill="#000000"> &#160;Bootstrap</text>
<polygon fill="#fdb462" stroke="transparent" points="2289.5,-10 2289.5,-30 2309.5,-30 2309.5,-10 2289.5,-10"/>
<text text-anchor="start" x="2313.1732" y="-15.4" font-family="sans-serif" font-size="14.00" fill="#000000"> &#160;Providers</text>
<polygon fill="#fb8072" stroke="transparent" points="2385.5,-10 2385.5,-30 2405.5,-30 2405.5,-10 2385.5,-10"/>
<text text-anchor="start" x="2409.2258" y="-15.4" font-family="sans-serif" font-size="14.00" fill="#000000"> &#160;Exports</text>
<g id="clust1" class="cluster">
<title>cluster_AppModule</title>
<polygon fill="none" stroke="#000000" stroke-dasharray="1,5" points="8,-70 8,-268 4447,-268 4447,-70 8,-70"/>
</g>
<g id="clust2" class="cluster">
<title>cluster_AppModule_declarations</title>
<polygon fill="none" stroke="#000000" points="214,-78 214,-130 4439,-130 4439,-78 214,-78"/>
</g>
<g id="clust25" class="cluster">
<title>cluster_AppModule_bootstrap</title>
<polygon fill="none" stroke="#000000" points="2416,-208 2416,-260 2540,-260 2540,-208 2416,-208"/>
</g>
<g id="clust26" class="cluster">
<title>cluster_AppModule_providers</title>
<polygon fill="none" stroke="#000000" points="16,-78 16,-130 206,-130 206,-78 16,-78"/>
</g>
<!-- AppComponent -->
<g id="node1" class="node">
<title>AppComponent</title>
<polygon fill="#ffffb3" stroke="#000000" points="4430.9399,-122 4325.0601,-122 4325.0601,-86 4430.9399,-86 4430.9399,-122"/>
<text text-anchor="middle" x="4378" y="-99.8" font-family="Times,serif" font-size="14.00" fill="#000000">AppComponent</text>
</g>
<!-- AppModule -->
<g id="node21" class="node">
<title>AppModule</title>
<polygon fill="#8dd3c7" stroke="#000000" points="2519.6571,-187 2516.6571,-191 2495.6571,-191 2492.6571,-187 2436.3429,-187 2436.3429,-151 2519.6571,-151 2519.6571,-187"/>
<text text-anchor="middle" x="2478" y="-164.8" font-family="Times,serif" font-size="14.00" fill="#000000">AppModule</text>
</g>
<!-- AppComponent&#45;&gt;AppModule -->
<g id="edge1" class="edge">
<title>AppComponent&#45;&gt;AppModule</title>
<path fill="none" stroke="#000000" d="M4378,-122.1532C4378,-145.7566 4378,-184 4378,-184 4378,-184 2529.8985,-184 2529.8985,-184"/>
<polygon fill="#000000" stroke="#000000" points="2529.8986,-180.5001 2519.8985,-184 2529.8985,-187.5001 2529.8986,-180.5001"/>
</g>
<!-- DemoComponentImpl -->
<g id="node2" class="node">
<title>DemoComponentImpl</title>
<polygon fill="#ffffb3" stroke="#000000" points="4306.986,-122 4165.014,-122 4165.014,-86 4306.986,-86 4306.986,-122"/>
<text text-anchor="middle" x="4236" y="-99.8" font-family="Times,serif" font-size="14.00" fill="#000000">DemoComponentImpl</text>
</g>
<!-- DemoComponentImpl&#45;&gt;AppModule -->
<g id="edge2" class="edge">
<title>DemoComponentImpl&#45;&gt;AppModule</title>
<path fill="none" stroke="#000000" d="M4236,-122.2479C4236,-145.0179 4236,-181 4236,-181 4236,-181 2529.7225,-181 2529.7225,-181"/>
<polygon fill="#000000" stroke="#000000" points="2529.7225,-177.5001 2519.7225,-181 2529.7224,-184.5001 2529.7225,-177.5001"/>
</g>
<!-- EpochVisualizationComponent -->
<g id="node3" class="node">
<title>EpochVisualizationComponent</title>
<polygon fill="#ffffb3" stroke="#000000" points="4146.7478,-122 3955.2522,-122 3955.2522,-86 4146.7478,-86 4146.7478,-122"/>
<text text-anchor="middle" x="4051" y="-99.8" font-family="Times,serif" font-size="14.00" fill="#000000">EpochVisualizationComponent</text>
</g>
<!-- EpochVisualizationComponent&#45;&gt;AppModule -->
<g id="edge3" class="edge">
<title>EpochVisualizationComponent&#45;&gt;AppModule</title>
<path fill="none" stroke="#000000" d="M4051,-122.2921C4051,-144.2057 4051,-178 4051,-178 4051,-178 2529.6688,-178 2529.6688,-178"/>
<polygon fill="#000000" stroke="#000000" points="2529.6688,-174.5001 2519.6688,-178 2529.6687,-181.5001 2529.6688,-174.5001"/>
</g>
<!-- ImageDrawableDirective -->
<g id="node4" class="node">
<title>ImageDrawableDirective</title>
<polygon fill="#ffffb3" stroke="#000000" points="3936.9721,-122 3779.0279,-122 3779.0279,-86 3936.9721,-86 3936.9721,-122"/>
<text text-anchor="middle" x="3858" y="-99.8" font-family="Times,serif" font-size="14.00" fill="#000000">ImageDrawableDirective</text>
</g>
<!-- ImageDrawableDirective&#45;&gt;AppModule -->
<g id="edge4" class="edge">
<title>ImageDrawableDirective&#45;&gt;AppModule</title>
<path fill="none" stroke="#000000" d="M3858,-122.0267C3858,-142.7672 3858,-174 3858,-174 3858,-174 2529.6766,-174 2529.6766,-174"/>
<polygon fill="#000000" stroke="#000000" points="2529.6767,-170.5001 2519.6766,-174 2529.6766,-177.5001 2529.6767,-170.5001"/>
</g>
<!-- ImageInputComponentImpl -->
<g id="node5" class="node">
<title>ImageInputComponentImpl</title>
<polygon fill="#ffffb3" stroke="#000000" points="3761.3061,-122 3588.6939,-122 3588.6939,-86 3761.3061,-86 3761.3061,-122"/>
<text text-anchor="middle" x="3675" y="-99.8" font-family="Times,serif" font-size="14.00" fill="#000000">ImageInputComponentImpl</text>
</g>
<!-- ImageInputComponentImpl&#45;&gt;AppModule -->
<g id="edge5" class="edge">
<title>ImageInputComponentImpl&#45;&gt;AppModule</title>
<path fill="none" stroke="#000000" d="M3675,-122.308C3675,-142.1455 3675,-171 3675,-171 3675,-171 2529.9,-171 2529.9,-171"/>
<polygon fill="#000000" stroke="#000000" points="2529.9,-167.5001 2519.9,-171 2529.9,-174.5001 2529.9,-167.5001"/>
</g>
<!-- InjectComponentDirective -->
<g id="node6" class="node">
<title>InjectComponentDirective</title>
<polygon fill="#ffffb3" stroke="#000000" points="3570.7864,-122 3405.2136,-122 3405.2136,-86 3570.7864,-86 3570.7864,-122"/>
<text text-anchor="middle" x="3488" y="-99.8" font-family="Times,serif" font-size="14.00" fill="#000000">InjectComponentDirective</text>
</g>
<!-- InjectComponentDirective&#45;&gt;AppModule -->
<g id="edge6" class="edge">
<title>InjectComponentDirective&#45;&gt;AppModule</title>
<path fill="none" stroke="#000000" d="M3488,-122.1686C3488,-141.0898 3488,-168 3488,-168 3488,-168 2529.7938,-168 2529.7938,-168"/>
<polygon fill="#000000" stroke="#000000" points="2529.7939,-164.5001 2519.7938,-168 2529.7938,-171.5001 2529.7939,-164.5001"/>
</g>
<!-- InputContainerComponentImpl -->
<g id="node7" class="node">
<title>InputContainerComponentImpl</title>
<polygon fill="#ffffb3" stroke="#000000" points="3387.0336,-122 3194.9664,-122 3194.9664,-86 3387.0336,-86 3387.0336,-122"/>
<text text-anchor="middle" x="3291" y="-99.8" font-family="Times,serif" font-size="14.00" fill="#000000">InputContainerComponentImpl</text>
</g>
<!-- InputContainerComponentImpl&#45;&gt;AppModule -->
<g id="edge7" class="edge">
<title>InputContainerComponentImpl&#45;&gt;AppModule</title>
<path fill="none" stroke="#000000" d="M3291,-122.302C3291,-140.2699 3291,-165 3291,-165 3291,-165 2529.716,-165 2529.716,-165"/>
<polygon fill="#000000" stroke="#000000" points="2529.7161,-161.5001 2519.716,-165 2529.716,-168.5001 2529.7161,-161.5001"/>
</g>
<!-- JSONModelComponentImpl -->
<g id="node8" class="node">
<title>JSONModelComponentImpl</title>
<polygon fill="#ffffb3" stroke="#000000" points="3176.7646,-122 2999.2354,-122 2999.2354,-86 3176.7646,-86 3176.7646,-122"/>
<text text-anchor="middle" x="3088" y="-99.8" font-family="Times,serif" font-size="14.00" fill="#000000">JSONModelComponentImpl</text>
</g>
<!-- JSONModelComponentImpl&#45;&gt;AppModule -->
<g id="edge8" class="edge">
<title>JSONModelComponentImpl&#45;&gt;AppModule</title>
<path fill="none" stroke="#000000" d="M3088,-122.0352C3088,-138.7344 3088,-161 3088,-161 3088,-161 2529.9278,-161 2529.9278,-161"/>
<polygon fill="#000000" stroke="#000000" points="2529.9278,-157.5001 2519.9278,-161 2529.9277,-164.5001 2529.9278,-157.5001"/>
</g>
<!-- JsonInputComponentImpl -->
<g id="node9" class="node">
<title>JsonInputComponentImpl</title>
<polygon fill="#ffffb3" stroke="#000000" points="2981.2147,-122 2818.7853,-122 2818.7853,-86 2981.2147,-86 2981.2147,-122"/>
<text text-anchor="middle" x="2900" y="-99.8" font-family="Times,serif" font-size="14.00" fill="#000000">JsonInputComponentImpl</text>
</g>
<!-- JsonInputComponentImpl&#45;&gt;AppModule -->
<g id="edge9" class="edge">
<title>JsonInputComponentImpl&#45;&gt;AppModule</title>
<path fill="none" stroke="#000000" d="M2900,-122.2819C2900,-137.9478 2900,-158 2900,-158 2900,-158 2530.0058,-158 2530.0058,-158"/>
<polygon fill="#000000" stroke="#000000" points="2530.0058,-154.5001 2520.0058,-158 2530.0057,-161.5001 2530.0058,-154.5001"/>
</g>
<!-- LossChartVisualizationComponent -->
<g id="node10" class="node">
<title>LossChartVisualizationComponent</title>
<polygon fill="#ffffb3" stroke="#000000" points="2800.5251,-122 2587.4749,-122 2587.4749,-86 2800.5251,-86 2800.5251,-122"/>
<text text-anchor="middle" x="2694" y="-99.8" font-family="Times,serif" font-size="14.00" fill="#000000">LossChartVisualizationComponent</text>
</g>
<!-- LossChartVisualizationComponent&#45;&gt;AppModule -->
<g id="edge10" class="edge">
<title>LossChartVisualizationComponent&#45;&gt;AppModule</title>
<path fill="none" stroke="#000000" d="M2694,-122.1243C2694,-136.7832 2694,-155 2694,-155 2694,-155 2529.9031,-155 2529.9031,-155"/>
<polygon fill="#000000" stroke="#000000" points="2529.9031,-151.5001 2519.9031,-155 2529.9031,-158.5001 2529.9031,-151.5001"/>
</g>
<!-- LossVisualizationComponent -->
<g id="node11" class="node">
<title>LossVisualizationComponent</title>
<polygon fill="#ffffb3" stroke="#000000" points="2569.4227,-122 2386.5773,-122 2386.5773,-86 2569.4227,-86 2569.4227,-122"/>
<text text-anchor="middle" x="2478" y="-99.8" font-family="Times,serif" font-size="14.00" fill="#000000">LossVisualizationComponent</text>
</g>
<!-- LossVisualizationComponent&#45;&gt;AppModule -->
<g id="edge11" class="edge">
<title>LossVisualizationComponent&#45;&gt;AppModule</title>
<path fill="none" stroke="#000000" d="M2478,-122.1061C2478,-122.1061 2478,-140.991 2478,-140.991"/>
<polygon fill="#000000" stroke="#000000" points="2474.5001,-140.9909 2478,-150.991 2481.5001,-140.991 2474.5001,-140.9909"/>
</g>
<!-- ModelContainerComponentImpl -->
<g id="node12" class="node">
<title>ModelContainerComponentImpl</title>
<polygon fill="#ffffb3" stroke="#000000" points="2368.5321,-122 2169.4679,-122 2169.4679,-86 2368.5321,-86 2368.5321,-122"/>
<text text-anchor="middle" x="2269" y="-99.8" font-family="Times,serif" font-size="14.00" fill="#000000">ModelContainerComponentImpl</text>
</g>
<!-- ModelContainerComponentImpl&#45;&gt;AppModule -->
<g id="edge12" class="edge">
<title>ModelContainerComponentImpl&#45;&gt;AppModule</title>
<path fill="none" stroke="#000000" d="M2269,-122.1243C2269,-136.7832 2269,-155 2269,-155 2269,-155 2426.208,-155 2426.208,-155"/>
<polygon fill="#000000" stroke="#000000" points="2426.2081,-158.5001 2436.208,-155 2426.208,-151.5001 2426.2081,-158.5001"/>
</g>
<!-- ModifParamModelComponentImpl -->
<g id="node13" class="node">
<title>ModifParamModelComponentImpl</title>
<polygon fill="#ffffb3" stroke="#000000" points="2151.5828,-122 1936.4172,-122 1936.4172,-86 2151.5828,-86 2151.5828,-122"/>
<text text-anchor="middle" x="2044" y="-99.8" font-family="Times,serif" font-size="14.00" fill="#000000">ModifParamModelComponentImpl</text>
</g>
<!-- ModifParamModelComponentImpl&#45;&gt;AppModule -->
<g id="edge13" class="edge">
<title>ModifParamModelComponentImpl&#45;&gt;AppModule</title>
<path fill="none" stroke="#000000" d="M2044,-122.2819C2044,-137.9478 2044,-158 2044,-158 2044,-158 2425.9919,-158 2425.9919,-158"/>
<polygon fill="#000000" stroke="#000000" points="2425.9919,-161.5001 2435.9919,-158 2425.9919,-154.5001 2425.9919,-161.5001"/>
</g>
<!-- TSModelComponentImpl -->
<g id="node14" class="node">
<title>TSModelComponentImpl</title>
<polygon fill="#ffffb3" stroke="#000000" points="1918.1596,-122 1757.8404,-122 1757.8404,-86 1918.1596,-86 1918.1596,-122"/>
<text text-anchor="middle" x="1838" y="-99.8" font-family="Times,serif" font-size="14.00" fill="#000000">TSModelComponentImpl</text>
</g>
<!-- TSModelComponentImpl&#45;&gt;AppModule -->
<g id="edge14" class="edge">
<title>TSModelComponentImpl&#45;&gt;AppModule</title>
<path fill="none" stroke="#000000" d="M1838,-122.0352C1838,-138.7344 1838,-161 1838,-161 1838,-161 2426.0078,-161 2426.0078,-161"/>
<polygon fill="#000000" stroke="#000000" points="2426.0078,-164.5001 2436.0078,-161 2426.0078,-157.5001 2426.0078,-164.5001"/>
</g>
<!-- TensorspaceVisualizationComponent -->
<g id="node15" class="node">
<title>TensorspaceVisualizationComponent</title>
<polygon fill="#ffffb3" stroke="#000000" points="1739.9412,-122 1514.0588,-122 1514.0588,-86 1739.9412,-86 1739.9412,-122"/>
<text text-anchor="middle" x="1627" y="-99.8" font-family="Times,serif" font-size="14.00" fill="#000000">TensorspaceVisualizationComponent</text>
</g>
<!-- TensorspaceVisualizationComponent&#45;&gt;AppModule -->
<g id="edge15" class="edge">
<title>TensorspaceVisualizationComponent&#45;&gt;AppModule</title>
<path fill="none" stroke="#000000" d="M1627,-122.302C1627,-140.2699 1627,-165 1627,-165 1627,-165 2426.089,-165 2426.089,-165"/>
<polygon fill="#000000" stroke="#000000" points="2426.0891,-168.5001 2436.089,-165 2426.089,-161.5001 2426.0891,-168.5001"/>
</g>
<!-- TextVisualizationModelComponent -->
<g id="node16" class="node">
<title>TextVisualizationModelComponent</title>
<polygon fill="#ffffb3" stroke="#000000" points="1496.1881,-122 1277.8119,-122 1277.8119,-86 1496.1881,-86 1496.1881,-122"/>
<text text-anchor="middle" x="1387" y="-99.8" font-family="Times,serif" font-size="14.00" fill="#000000">TextVisualizationModelComponent</text>
</g>
<!-- TextVisualizationModelComponent&#45;&gt;AppModule -->
<g id="edge16" class="edge">
<title>TextVisualizationModelComponent&#45;&gt;AppModule</title>
<path fill="none" stroke="#000000" d="M1387,-122.1686C1387,-141.0898 1387,-168 1387,-168 1387,-168 2426.2325,-168 2426.2325,-168"/>
<polygon fill="#000000" stroke="#000000" points="2426.2325,-171.5001 2436.2325,-168 2426.2324,-164.5001 2426.2325,-171.5001"/>
</g>
<!-- VisualizationContainerComponentImpl -->
<g id="node17" class="node">
<title>VisualizationContainerComponentImpl</title>
<polygon fill="#ffffb3" stroke="#000000" points="1259.6301,-122 1022.3699,-122 1022.3699,-86 1259.6301,-86 1259.6301,-122"/>
<text text-anchor="middle" x="1141" y="-99.8" font-family="Times,serif" font-size="14.00" fill="#000000">VisualizationContainerComponentImpl</text>
</g>
<!-- VisualizationContainerComponentImpl&#45;&gt;AppModule -->
<g id="edge17" class="edge">
<title>VisualizationContainerComponentImpl&#45;&gt;AppModule</title>
<path fill="none" stroke="#000000" d="M1141,-122.308C1141,-142.1455 1141,-171 1141,-171 1141,-171 2426.1498,-171 2426.1498,-171"/>
<polygon fill="#000000" stroke="#000000" points="2426.1499,-174.5001 2436.1498,-171 2426.1498,-167.5001 2426.1499,-174.5001"/>
</g>
<!-- VisualizationInferenceImageComponentImpl -->
<g id="node18" class="node">
<title>VisualizationInferenceImageComponentImpl</title>
<polygon fill="#ffffb3" stroke="#000000" points="1004.2429,-122 733.7571,-122 733.7571,-86 1004.2429,-86 1004.2429,-122"/>
<text text-anchor="middle" x="869" y="-99.8" font-family="Times,serif" font-size="14.00" fill="#000000">VisualizationInferenceImageComponentImpl</text>
</g>
<!-- VisualizationInferenceImageComponentImpl&#45;&gt;AppModule -->
<g id="edge18" class="edge">
<title>VisualizationInferenceImageComponentImpl&#45;&gt;AppModule</title>
<path fill="none" stroke="#000000" d="M869,-122.0267C869,-142.7672 869,-174 869,-174 869,-174 2426.2009,-174 2426.2009,-174"/>
<polygon fill="#000000" stroke="#000000" points="2426.201,-177.5001 2436.2009,-174 2426.2009,-170.5001 2426.201,-177.5001"/>
</g>
<!-- VisualizationInferenceJSONComponentImpl -->
<g id="node19" class="node">
<title>VisualizationInferenceJSONComponentImpl</title>
<polygon fill="#ffffb3" stroke="#000000" points="716.203,-122 447.797,-122 447.797,-86 716.203,-86 716.203,-122"/>
<text text-anchor="middle" x="582" y="-99.8" font-family="Times,serif" font-size="14.00" fill="#000000">VisualizationInferenceJSONComponentImpl</text>
</g>
<!-- VisualizationInferenceJSONComponentImpl&#45;&gt;AppModule -->
<g id="edge19" class="edge">
<title>VisualizationInferenceJSONComponentImpl&#45;&gt;AppModule</title>
<path fill="none" stroke="#000000" d="M582,-122.2921C582,-144.2057 582,-178 582,-178 582,-178 2426.1897,-178 2426.1897,-178"/>
<polygon fill="#000000" stroke="#000000" points="2426.1897,-181.5001 2436.1897,-178 2426.1896,-174.5001 2426.1897,-181.5001"/>
</g>
<!-- VisualizationItemComponentImpl -->
<g id="node20" class="node">
<title>VisualizationItemComponentImpl</title>
<polygon fill="#ffffb3" stroke="#000000" points="430.0786,-122 221.9214,-122 221.9214,-86 430.0786,-86 430.0786,-122"/>
<text text-anchor="middle" x="326" y="-99.8" font-family="Times,serif" font-size="14.00" fill="#000000">VisualizationItemComponentImpl</text>
</g>
<!-- VisualizationItemComponentImpl&#45;&gt;AppModule -->
<g id="edge20" class="edge">
<title>VisualizationItemComponentImpl&#45;&gt;AppModule</title>
<path fill="none" stroke="#000000" d="M326,-122.2479C326,-145.0179 326,-181 326,-181 326,-181 2425.9779,-181 2425.9779,-181"/>
<polygon fill="#000000" stroke="#000000" points="2425.9779,-184.5001 2435.9779,-181 2425.9779,-177.5001 2425.9779,-184.5001"/>
</g>
<!-- AppComponent  -->
<g id="node22" class="node">
<title>AppComponent </title>
<polygon fill="#80b1d3" stroke="#000000" points="2532.439,-252 2423.561,-252 2423.561,-216 2532.439,-216 2532.439,-252"/>
<text text-anchor="middle" x="2478" y="-229.8" font-family="Times,serif" font-size="14.00" fill="#000000">AppComponent </text>
</g>
<!-- AppModule&#45;&gt;AppComponent  -->
<g id="edge21" class="edge">
<title>AppModule&#45;&gt;AppComponent </title>
<path fill="none" stroke="#000000" stroke-dasharray="1,5" d="M2478,-187.1061C2478,-187.1061 2478,-205.991 2478,-205.991"/>
<polygon fill="#000000" stroke="#000000" points="2474.5001,-205.9909 2478,-215.991 2481.5001,-205.991 2474.5001,-205.9909"/>
</g>
<!-- TrainerServiceImpl -->
<g id="node23" class="node">
<title>TrainerServiceImpl</title>
<ellipse fill="#fdb462" stroke="#000000" cx="111" cy="-104" rx="86.7914" ry="18"/>
<text text-anchor="middle" x="111" y="-99.8" font-family="Times,serif" font-size="14.00" fill="#000000">TrainerServiceImpl</text>
</g>
<!-- TrainerServiceImpl&#45;&gt;AppModule -->
<g id="edge22" class="edge">
<title>TrainerServiceImpl&#45;&gt;AppModule</title>
<path fill="none" stroke="#000000" d="M111,-122.1532C111,-145.7566 111,-184 111,-184 111,-184 2426.1639,-184 2426.1639,-184"/>
<polygon fill="#000000" stroke="#000000" points="2426.1639,-187.5001 2436.1639,-184 2426.1639,-180.5001 2426.1639,-187.5001"/>
</g>
</g>
</svg>
